<svg width="81" height="61" viewBox="0 0 81 61" fill="none" xmlns="http://www.w3.org/2000/svg">
<path d="M42.8961 57.7634C43.1197 57.518 43.3576 57.2533 43.6047 56.9733C44.9234 55.4787 46.5447 53.5024 47.6418 51.6739L48.7289 49.8621L46.6288 50.0954C42.1573 50.5922 39.2832 49.4421 37.5125 47.6045C35.7111 45.7352 34.8839 42.9819 34.8839 39.9727C34.8839 34.264 40.1204 29.1588 46.7444 29.1588C53.4105 29.1588 58.6048 33.9535 58.6048 39.6239C58.6048 44.4003 56.5373 48.9989 54.4004 52.4608C53.3387 54.1807 52.2762 55.5938 51.4802 56.5756C51.0826 57.066 50.7525 57.4475 50.5236 57.7044C50.5054 57.7249 50.4879 57.7446 50.4709 57.7634H42.8961Z" stroke="black" stroke-width="2.09302"/>
<path d="M68.8021 57.455C68.7129 57.572 68.6334 57.675 68.5645 57.7634H61.0353C61.2588 57.518 61.4967 57.2533 61.7438 56.9733C63.0626 55.4787 64.6839 53.5024 65.7809 51.6739L66.868 49.8621L64.768 50.0954C60.2964 50.5922 57.4224 49.4421 55.6517 47.6045C53.8503 45.7351 53.0231 42.9819 53.0231 39.9727C53.0231 34.8442 57.2449 30.2026 62.9179 29.3118L62.997 29.4541C63.2677 29.9421 63.6565 30.6433 64.1285 31.496C65.0724 33.2016 66.3489 35.513 67.6791 37.937C70.1511 42.4412 72.7848 47.2909 73.8346 49.3919C72.6319 51.8131 71.2821 53.9494 70.2078 55.5105C69.6381 56.3382 69.1482 57.001 68.8021 57.455Z" stroke="black" stroke-width="2.09302"/>
<path d="M18.0315 57.7686L48.2302 4.41746C48.4974 3.94545 49.1774 3.94546 49.4445 4.41746L79.6433 57.7686C79.9066 58.2337 79.5706 58.8099 79.0361 58.8099H18.6386C18.1042 58.8099 17.7682 58.2337 18.0315 57.7686Z" stroke="black" stroke-width="2.5"/>
<path d="M51.628 40.3216C51.628 42.5709 49.6623 44.5076 47.0931 44.5076C44.5239 44.5076 42.5582 42.5709 42.5582 40.3216C42.5582 38.0723 44.5239 36.1355 47.0931 36.1355C49.6623 36.1355 51.628 38.0723 51.628 40.3216Z" fill="white" stroke="black" stroke-width="2.09302"/>
<ellipse cx="64.535" cy="40.3216" rx="5.5814" ry="5.23256" fill="black"/>
<path d="M2.54148 55.0618L0.816406 54.0658L5.10502 46.6377L6.83009 47.6337L5.29154 50.2985L12.3549 54.3765L11.1459 56.4707L4.0825 52.3926L2.54148 55.0618Z" fill="black"/>
<path d="M14.6319 50.4326L5.8435 45.3586L7.06988 43.2345L10.5973 45.271L12.5966 41.808L9.06925 39.7715L10.2932 37.6516L19.0816 42.7256L17.8577 44.8455L14.326 42.8064L12.3266 46.2695L15.8583 48.3085L14.6319 50.4326Z" fill="black"/>
<path d="M19.9904 41.1515L11.202 36.0775L14.7399 29.9496L16.465 30.9456L14.1534 34.9493L15.9557 35.9899L18.0864 32.2994L19.8158 33.2979L17.6851 36.9883L19.4917 38.0314L21.8032 34.0277L23.5283 35.0236L19.9904 41.1515Z" fill="black"/>
<path d="M26.0743 30.6138L17.2859 25.5398L19.4017 21.8751C19.7816 21.2171 20.1925 20.7201 20.6345 20.384C21.0781 20.0451 21.5317 19.8607 21.9952 19.8308C22.4604 19.798 22.9133 19.9088 23.3539 20.1632C23.6886 20.3564 23.9471 20.5991 24.1294 20.8913C24.3088 21.1817 24.4133 21.4996 24.4429 21.8447C24.4725 22.1898 24.4283 22.5438 24.3103 22.9067L24.3961 22.9563C24.6181 22.6115 24.9031 22.3392 25.251 22.1396C25.6006 21.9371 25.9841 21.8343 26.4017 21.8313C26.8164 21.8266 27.2354 21.9464 27.6588 22.1909C28.1308 22.4634 28.4834 22.8272 28.7166 23.2822C28.9469 23.7356 29.038 24.2517 28.99 24.8304C28.939 25.4075 28.7261 26.0208 28.3512 26.6702L26.0743 30.6138ZM25.5885 27.5011L26.3466 26.188C26.6126 25.7274 26.721 25.338 26.672 25.0198C26.6247 24.6988 26.4451 24.4483 26.1333 24.2682C25.9073 24.1377 25.6822 24.0784 25.458 24.0901C25.231 24.1001 25.017 24.1768 24.816 24.3201C24.6121 24.4618 24.4317 24.6685 24.2748 24.9403L23.4944 26.2921L25.5885 27.5011ZM22.1255 25.5017L22.8043 24.3259C22.9381 24.0942 23.0184 23.8659 23.0452 23.6411C23.0721 23.4163 23.0414 23.2117 22.9533 23.0273C22.8669 22.8401 22.7207 22.687 22.5147 22.5681C22.22 22.398 21.928 22.3686 21.6387 22.48C21.3493 22.5914 21.1022 22.8244 20.8974 23.1792L20.1987 24.3893L22.1255 25.5017Z" fill="black"/>
<path d="M31.2417 11.5156C32.2087 12.0739 32.9209 12.733 33.3785 13.4931C33.8361 14.2531 34.056 15.0515 34.0384 15.8881C34.0224 16.7218 33.7873 17.5321 33.3331 18.3188C32.8772 19.1084 32.2908 19.7177 31.5739 20.1468C30.857 20.5759 30.0565 20.7831 29.1723 20.7685C28.287 20.7494 27.3622 20.4616 26.3981 19.9049C25.4312 19.3467 24.7181 18.6889 24.2589 17.9317C23.8013 17.1717 23.5805 16.3748 23.5965 15.541C23.6125 14.7073 23.8485 13.8956 24.3043 13.106C24.7585 12.3193 25.3427 11.7106 26.0567 11.2799C26.7724 10.8463 27.5738 10.6376 28.4608 10.6538C29.3478 10.6701 30.2748 10.9573 31.2417 11.5156ZM29.9881 13.687C29.4159 13.3566 28.8854 13.159 28.3964 13.0942C27.9091 13.0264 27.4764 13.0855 27.0982 13.2715C26.7217 13.4546 26.4112 13.7579 26.1667 14.1813C25.9239 14.6018 25.8165 15.0224 25.8446 15.4429C25.8726 15.8634 26.037 16.2692 26.3376 16.6602C26.6399 17.0483 27.0771 17.4075 27.6493 17.7379C28.2215 18.0682 28.7512 18.2672 29.2385 18.335C29.7274 18.3998 30.161 18.3393 30.5392 18.1533C30.9174 17.9673 31.2279 17.6641 31.4707 17.2435C31.7151 16.8201 31.8225 16.3996 31.7928 15.9819C31.7648 15.5614 31.5996 15.1571 31.2973 14.769C30.9967 14.378 30.5602 14.0173 29.9881 13.687Z" fill="black"/>
<path d="M28.6581 5.84249L32.3612 5.84054L32.4008 5.77188L30.5609 2.54684L31.9334 0.169498L34.7965 5.35847L40.7714 5.15767L39.3642 7.59508L35.6063 7.6226L35.5667 7.69126L37.4218 10.9594L36.0245 13.3796L33.2035 8.11773L27.2757 8.23699L28.6581 5.84249Z" fill="black"/>
</svg>
